# AST/ASF file generated using VICON BodyLanguage
# -----------------------------------------------
:version 1.10
:name VICON
:units
  mass 1.0
  length 0.45
  angle deg
:documentation
   .ast/.asf automatically generated from VICON data using
   VICON BodyBuilder and BodyLanguage model FoxedUp or BRILLIANT.MOD
:root
   order TX TY TZ RX RY RZ
   axis XYZ
   position 0 0 0  
   orientation 0 0 0 
:bonedata
  begin
     id 1 
     name lhipjoint
     direction 0.567149 -0.783011 0.255413 
     length 2.28399 
     axis 0 0 0  XYZ
  end
  begin
     id 2 
     name lfemur
     direction 0.34202 -0.939693 0  
     length 7.34031  
     axis 0 0 20  XYZ
    dof rx ry rz
    limits (-160.0 20.0)
           (-70.0 70.0)
           (-60.0 70.0)
  end
  begin
     id 3 
     name ltibia
     direction 0.34202 -0.939693 0   
     length 6.9833   
     axis 0 0 20   XYZ
    dof rx
    limits (-10.0 170.0)
  end
  begin
     id 4 
     name lfoot
     direction 0.136498 -0.375025 0.91691   
     length 2.33665   
     axis -90 7.62852e-016 20   XYZ
    dof rx rz
    limits (-45.0 90.0)
           (-70.0 20.0)
  end
  begin
     id 5 
     name ltoes
     direction 1.5367e-011 -4.21617e-011 1   
     length 1.15039   
     axis -90 7.62852e-016 20   XYZ
    dof rx
    limits (-90.0 20.0)
  end
  begin
     id 6 
     name rhipjoint
     direction -0.602854 -0.758518 0.247423   
     length 2.35775  
     axis 0 0 0  XYZ 
  end
  begin
     id 7 
     name rfemur
     direction -0.34202 -0.939693 0   
     length 7.43932   
     axis 0 0 -20   XYZ
    dof rx ry rz
    limits (-160.0 20.0)
           (-70.0 70.0)
           (-70.0 60.0)
  end
  begin
     id 8 
     name rtibia
     direction -0.34202 -0.939693 0   
     length 7.11893   
     axis 0 0 -20   XYZ
    dof rx
    limits (-10.0 170.0)
 end
 begin
     id 9 
     name rfoot
     direction -0.131771 -0.362037 0.922803   
     length 2.53019  
     axis -90 -7.62852e-016 -20   XYZ
    dof rx rz
    limits (-45.0 90.0)
           (-20.0 70.0)
  end
  begin
     id 10 
     name rtoes
     direction -1.53733e-011 -4.21932e-011 1   
     length 1.24596   
     axis -90 -7.62852e-016 -20   XYZ
    dof rx
    limits (-90.0 20.0)
  end
  begin
     id 11 
     name lowerback
     direction 0.0235427 0.999023 -0.0374125   
     length 2.21768   
     axis 0 0 0   XYZ
    dof rx ry rz
    limits (-20.0 45.0)
           (-30.0 30.0)
           (-30.0 30.0)
  end
  begin
     id 12 
     name upperback
     direction 0.0302156 0.996818 -0.073759   
     length 2.20352   
     axis 0 0 0   XYZ
    dof rx ry rz
    limits (-20.0 45.0)
           (-30.0 30.0)
           (-30.0 30.0)
  end
  begin
     id 13 
     name thorax
     direction 0.0187169 0.998235 -0.0563532   
     length 2.22103   
     axis 0 0 0   XYZ
    dof rx ry rz
    limits (-20.0 45.0)
           (-30.0 30.0)
           (-30.0 30.0)
  end
  begin
     id 14 
     name lowerneck
     direction -0.119528 0.987423 0.103481   
     length 1.72948   
     axis 0 0 0   XYZ
    dof rx ry rz
    limits (-20.0 45.0)
           (-30.0 30.0)
           (-30.0 30.0)
  end
  begin
     id 15 
     name upperneck
     direction 0.248049 0.963095 -0.104496   
     length 1.74979   
     axis 0 0 0   XYZ
    dof rx ry rz
    limits (-20.0 45.0)
           (-30.0 30.0)
           (-30.0 30.0)
  end
  begin
     id 16
     name head
     direction 0.0903589 0.994284 -0.056876  
     length 1.78268  
     axis 0 0 0   XYZ
    dof rx ry rz
    limits (-20.0 45.0)
           (-30.0 30.0)
           (-30.0 30.0)
  end
  begin
     id 17 
     name lclavicle
     direction 0.946008 0.242039 -0.215608  
     length 3.80783  
     axis 0 0 0   XYZ
    dof ry rz
    limits (-20.0 10.0)
           (0.0 20.0)
  end
  begin
     id 18 
     name lhumerus
     direction 1 -4.48991e-011 -2.25695e-027   
     length 4.83125   
     axis 180 -30 -90   XYZ
    dof rx ry rz
    limits (-60.0 90.0)
           (-90.0 90.0)
           (-90.0 90.0)
  end
  begin
     id 19
     name lradius
     direction 0.999991 0.00366712 -0.00211721   
     length 3.00391   
     axis 180 -30 -90   XYZ
    dof rx
    limits (-10.0 170.0)
  end
  begin
     id 20
     name lwrist
     direction 0.999991 0.00393016 -0.00141978   
     length 1.50195   
     axis -1.00488e-014 90 90   XYZ
    dof ry
    limits (-180.0 0.0)
 end
  begin
     id 21 
     name lhand
     direction 1 -4.49123e-011 2.72098e-026   
     length 1.2717   
     axis -1.73687e-014 90 90   XYZ
    dof rx rz
    limits (-90.0 90.0)
           (-45.0 45.0)
  end
  begin
     id 22 
     name lfingers
     direction 1 -4.48678e-011 5.4479e-026   
     length 1.02528   
     axis -3.47372e-014 90 90   XYZ
    dof rx
    limits (0.0 90.0)
  end
  begin
     id 23
     name lthumb
     direction 0.707107 -6.34851e-011 0.707107   
     length 1.4721   
     axis -90 45 -1.62303e-014   XYZ
    dof rx rz
    limits (-45.0 45.0)
           (-45.0 45.0)
  end
  begin
     id 24 
     name rclavicle
     direction -0.981723 0.189447 -0.0181673   
     length 3.74989  
     axis 0 0 0   XYZ 
    dof ry rz
    limits (-10.0 20.0)
           (-20.0 0.0)
  end
  begin
     id 25 
     name rhumerus
     direction -1 -4.48985e-011 2.38206e-027  
     length 4.61118   
     axis 180 30 90   XYZ
    dof rx ry rz
    limits (-90.0 60.0)
           (-90.0 90.0)
           (-90.0 90.0)
  end
  begin
     id 26 
     name rradius
     direction -1 -4.48977e-011 7.41019e-027   
     length 2.91491   
     axis 180 30 90   XYZ
    dof rx
    limits (-10.0 170.0)
  end
  begin
     id 27 
     name rwrist
     direction -1 -4.48549e-011 1.3624e-026   
     length 1.45745   
     axis -1.00488e-014 -90 -90   XYZ
    dof ry
    limits (-180.0 0.0)
  end
  begin
     id 28
     name rhand
     direction -1 -4.49107e-011 2.72109e-026   
     length 1.30769   
     axis -1.73687e-014 -90 -90   XYZ
    dof rx rz
    limits (-90.0 90.0)
           (-45.0 45.0)
  end
  begin
     id 29
     name rfingers
     direction -1 -4.48919e-011 5.44468e-026   
     length 1.05429   
     axis -3.47372e-014 -90 -90   XYZ
    dof rx
    limits (0.0 90.0)
  end
  begin
     id 30
     name rthumb
     direction -0.707107 -6.35315e-011 0.707107   
     length 1.51376   
     axis -90 -45 1.62303e-014   XYZ
    dof rx rz
    limits (-45.0 45.0)
           (-45.0 45.0)
  end
:hierarchy
  begin
    root lhipjoint rhipjoint lowerback
    lhipjoint lfemur
    lfemur ltibia
    ltibia lfoot
    lfoot ltoes
    rhipjoint rfemur
    rfemur rtibia
    rtibia rfoot
    rfoot rtoes
    lowerback upperback
    upperback thorax
    thorax lowerneck lclavicle rclavicle
    lowerneck upperneck
    upperneck head
    lclavicle lhumerus
    lhumerus lradius
    lradius lwrist
    lwrist lhand lthumb
    lhand lfingers
    rclavicle rhumerus
    rhumerus rradius
    rradius rwrist
    rwrist rhand rthumb
    rhand rfingers
  end

#!OML:ASF X:\für Bonn\!DataBase\2005_08_11_Bastian_Final\c3d\Bastian.ASF
:FULLY-SPECIFIED
:DEGREES
1
root 0.0194757 17.4398 -0.872941 176.881 -4.02565 -175.698
lowerback 8.13787 -1.92258 1.33047
upperback 2.86011 -2.65005 0.769906
thorax -1.6221 -1.41154 0.297857
lowerneck -10.7312 -4.74766 -1.53523
upperneck -1.94564 -5.86544 7.95533
head 1.55145 -2.54088 2.55598
rclavicle 1.71949e-014 -1.35174e-014
rhumerus 82.1485 4.0899 37.9716
rradius 42.4925
rwrist -84.324
rhand -47.8619 -10.6262
rfingers 7.12502
rthumb -20.5357 -39.56
lclavicle 1.71949e-014 -1.35174e-014
lhumerus 80.4338 -13.3023 -56.2388
lradius 34.0368
lwrist 52.1404
lhand -44.0906 23.4539
lfingers 7.12502
lthumb -16.9084 52.7378
rfemur -3.3565 1.0212 27.0516
rtibia 38.0084
rfoot -22.3509 -16.3344
rtoes -2.04121
lfemur -2.79601 7.12129 -15.4711
ltibia 34.5344
lfoot -18.1017 -2.57316
ltoes -17.5349
2
root 0.014646 17.3734 -0.876573 176.648 -4.0223 -175.752
lowerback 8.33429 -1.89227 1.31986
upperback 2.99049 -2.62379 0.746494
thorax -1.59628 -1.4043 0.281889
lowerneck -10.3521 -4.72048 -1.34389
upperneck -2.34332 -5.80949 7.88309
head 1.34071 -2.52857 2.50709
rclavicle 1.78409e-014 -1.70955e-014
rhumerus 81.7223 3.83898 37.7107
rradius 42.6534
rwrist -84.5167
rhand -48.086 -10.6595
rfingers 7.12502
rthumb -20.7511 -39.5699
lclavicle 1.78409e-014 -1.70955e-014
lhumerus 80.0224 -13.054 -56.1367
lradius 34.2438
lwrist 52.2484
lhand -44.36 23.4834
lfingers 7.12502
lthumb -17.1677 52.7449
rfemur -3.15335 0.834749 27.044
rtibia 38.1938
rfoot -23.0583 -16.529
rtoes -2.27445
lfemur -2.58274 7.07067 -15.587
ltibia 34.7757
lfoot -19.1308 -2.48942
ltoes -17.6936
3
root 0.0101801 17.3117 -0.876131 176.332 -4.0165 -175.821
lowerback 8.64336 -1.8573 1.26626
upperback 3.14375 -2.59787 0.736904
thorax -1.60627 -1.39968 0.308057
lowerneck -10.0416 -4.71803 -1.33327
upperneck -2.67121 -5.77582 7.88374
head 1.17759 -2.52308 2.51327
rclavicle 1.93815e-014 -7.15625e-015
rhumerus 81.3924 3.66404 37.3182
rradius 42.7935
rwrist -84.7052
rhand -48.3777 -10.6215
rfingers 7.12502
rthumb -21.0312 -39.5011
lclavicle 1.93815e-014 -7.15625e-015
lhumerus 79.6787 -12.9033 -55.8758
lradius 34.3897
lwrist 52.2794
lhand -44.7058 23.6236
lfingers 7.12502
lthumb -17.5005 52.8559
rfemur -2.92003 0.524438 26.9789
rtibia 38.4242
rfoot -23.5234 -16.6646
rtoes -2.93745
lfemur -2.31202 6.9836 -15.722
ltibia 35.0409
lfoot -20.0476 -2.31939
ltoes -17.8061
4
root 0.00830267 17.2557 -0.873416 175.876 -3.97224 -175.908
lowerback 9.08337 -1.80353 1.19282
upperback 3.35228 -2.5565 0.698519
thorax -1.63127 -1.39093 0.317766
lowerneck -9.75058 -4.71911 -1.30391
upperneck -3.00343 -5.74628 7.90229
head 1.01754 -2.51791 2.52194
rclavicle 1.73937e-014 -1.15295e-014
rhumerus 81.1314 3.59372 36.7883
rradius 42.9006
rwrist -84.9634
rhand -48.7169 -10.3438
rfingers 7.12502
rthumb -21.3572 -39.1869
lclavicle 1.73937e-014 -1.15295e-014
lhumerus 79.4159 -12.8188 -55.3389
lradius 34.4449
lwrist 52.1179
lhand -45.0745 23.7594
lfingers 7.12502
lthumb -17.8554 52.9597
rfemur -2.59989 0.133504 26.8638
rtibia 38.7321
rfoot -23.8396 -16.7661
rtoes -3.75299
lfemur -1.89351 6.89077 -15.8475
ltibia 35.2928
lfoot -20.8118 -2.12305
ltoes -17.6971
5
root 0.00708473 17.2102 -0.870069 175.34 -3.94877 -176.057
lowerback 9.59776 -1.75251 1.05483
upperback 3.59242 -2.53114 0.650093
thorax -1.66164 -1.39323 0.356759
lowerneck -9.58328 -4.71956 -1.34803
upperneck -3.20047 -5.7228 7.94171
head 0.927128 -2.51086 2.54801
rclavicle -3.62782e-015 2.78299e-015
rhumerus 80.9991 3.65665 36.0718
rradius 42.93
rwrist -85.0981
rhand -49.0197 -9.99166
rfingers 7.12502
rthumb -21.6479 -38.8015
lclavicle -3.62782e-015 2.78299e-015
lhumerus 79.2276 -12.8411 -54.5271
lradius 34.4137
lwrist 51.7562
lhand -45.4964 23.9772
lfingers 7.12502
lthumb -18.2613 53.14
rfemur -2.27754 -0.337833 26.6443
rtibia 39.1745
rfoot -23.9863 -16.8211
rtoes -4.67449
lfemur -1.36986 6.67355 -16.0363
ltibia 35.4913
lfoot -21.3583 -1.92815
ltoes -16.9666
6
root 0.00641098 17.1766 -0.866313 174.75 -3.89986 -176.207
lowerback 10.1877 -1.67854 0.91819
upperback 3.84022 -2.48077 0.59681
thorax -1.72484 -1.38541 0.389628
lowerneck -9.54723 -4.75103 -1.4328
upperneck -3.24383 -5.75226 8.01741
head 0.91468 -2.52435 2.58812
rclavicle -1.2424e-014 1.98785e-015
rhumerus 80.9212 3.86207 35.2207
rradius 42.9282
rwrist -85.186
rhand -49.2296 -9.59274
rfingers 7.12502
rthumb -21.8495 -38.3792
lclavicle -1.2424e-014 1.98785e-015
lhumerus 79.1339 -12.9294 -53.4188
lradius 34.2785
lwrist 51.1665
lhand -45.8592 24.082
lfingers 7.12502
lthumb -18.6102 53.2118
rfemur -2.003 -1.00355 26.3354
rtibia 39.7953
rfoot -24.053 -16.6091
rtoes -5.7218
lfemur -0.753507 6.43434 -16.2203
ltibia 35.596
lfoot -21.683 -1.725
ltoes -15.814
